# xmcd
#
# Track frame offsets: 
#        150
#        15832
#        31613
#        45388
#        64077
#        76374
#        90388
#        105469
#        123500
#        139898
#        160665
#        179198
#        195216
#        212281
#        221727
#
# Disc length: 3213 seconds
#
# Revision: 0
# Processed by: cddbd v1.5.2PL0 Copyright (c) Steve Scherf et al.
# Submitted via: ExactAudioCopy v1.0b3
#
DISCID=b70c8b0f
DTITLE=北京市少年宫合唱团等 - 发烧童声合唱 Ⅰ
DYEAR=2009
DGENRE=民族音乐
TTITLE0=唱只山歌给党听
TTITLE1=东方红
TTITLE2=革命人永远是年轻
TTITLE3=红星歌
TTITLE4=没有共产党就没有新中国
TTITLE5=南泥湾
TTITLE6=情深谊长
TTITLE7=太阳最红毛主席最亲
TTITLE8=团结就是力量
TTITLE9=我爱你，中国
TTITLE10=我的祖国
TTITLE11=五月的鲜花
TTITLE12=小白杨
TTITLE13=中国，中国，鲜红的太阳永不落
TTITLE14=祖国，慈祥的母亲
EXTD=
EXTT0=
EXTT1=
EXTT2=
EXTT3=
EXTT4=
EXTT5=
EXTT6=
EXTT7=
EXTT8=
EXTT9=
EXTT10=
EXTT11=
EXTT12=
EXTT13=
EXTT14=
PLAYORDER=
